# xmcd CD database file
#
# Track frame offsets:
#	150
#	19004
#	29464
#	48243
#	60053
#	70120
#	92077
#	112881
#	127471
#	137768
#	154185
#	169107
#	192954
#	213653
#	233665
#
# Disc length: 3497 seconds
#
# Revision: 1
# Processed by: cddbd v1.5.1PL2 Copyright (c) Steve Scherf et al.
# Submitted via: CDex 1.51
#
DISCID=ca0da70f
DTITLE=喜多郎 - シルクロード/スーパーベスト
DYEAR=1900
DGENRE=New Age
TTITLE0=絲綢之路
TTITLE1=鐘楼
TTITLE2=天地創造神
TTITLE3=遙かなる大河
TTITLE4=長城
TTITLE5=飛天
TTITLE6=シルクロード幻想
TTITLE7=光と影
TTITLE8=西に向って
TTITLE9=静けさの中で
TTITLE10=流るる砂
TTITLE11=生命の泉
TTITLE12=敦煌からの想い
TTITLE13=TAO
TTITLE14=巡礼の旅?
EXTD=heungsoon lee
EXTT0=
EXTT1=
EXTT2=
EXTT3=
EXTT4=
EXTT5=
EXTT6=
EXTT7=
EXTT8=
EXTT9=
EXTT10=
EXTT11=
EXTT12=
EXTT13=
EXTT14=
PLAYORDER=
